<svg stroke-miterlimit="10" style="fill-rule:nonzero;clip-rule:evenodd;stroke-linecap:round;stroke-linejoin:round;" version="1.1" xml:space="preserve" xmlns="http://www.w3.org/2000/svg" xmlns:vectornator="http://vectornator.io" xmlns:xlink="http://www.w3.org/1999/xlink" viewBox="581.9 719.75 1257.13 171.13">
<metadata>
<vectornator:setting key="IsTimeLapseWatermarkDisabled" value="false"/>
<vectornator:setting key="UndoHistoryDisabled" value="true"/>
<vectornator:setting key="VNDimensionsVisible" value="true"/>
<vectornator:setting key="VNSnapToGuides" value="true"/>
<vectornator:setting key="WDCMYKEnabledKey" value="false"/>
<vectornator:setting key="WDDisplayWhiteBackground" value="false"/>
<vectornator:setting key="WDDynamicGuides" value="false"/>
<vectornator:setting key="WDGuidesVisible" value="true"/>
<vectornator:setting key="WDIsolateActiveLayer" value="false"/>
<vectornator:setting key="WDOutlineMode" value="false"/>
<vectornator:setting key="WDRulersVisible" value="true"/>
<vectornator:setting key="WDSnapToEdges" value="false"/>
<vectornator:setting key="WDSnapToGrid" value="false"/>
<vectornator:setting key="WDSnapToPoints" value="false"/>
<vectornator:setting key="WDUnits" value="Pixels"/>
</metadata>
<defs>
<clipPath id="TextBounds">
<rect height="307.514" width="1308.28" x="575.361" y="666.243"/>
</clipPath>
<filter color-interpolation-filters="sRGB" filterUnits="userSpaceOnUse" height="182.767" id="Filter" width="1257.12" x="581.901" y="719.763">
<feDropShadow dx="-5.09119e-07" dy="11.6473" flood-color="#000000" flood-opacity="0.333" in="SourceGraphic" result="Shadow" stdDeviation="0"/>
</filter>
</defs>
<g id="Layer-1" vectornator:layerName="Layer 1">
<g fill="#fcfc6d" filter="url(#Filter)" stroke="none" vectornator:shadowAngle="1.5708" vectornator:shadowColor="#000000" vectornator:shadowOffset="11.6473" vectornator:shadowOpacity="0.333" vectornator:shadowRadius="0">
<path clip-path="url(#TextBounds)" d="M626.541 762.003C626.541 757.363 626.501 753.123 626.421 749.283C626.341 745.443 626.141 742.643 625.821 740.883C623.421 740.883 620.461 740.963 616.941 741.123C613.421 741.283 609.661 741.483 605.661 741.723C601.661 741.963 597.581 742.283 593.421 742.683C589.261 743.083 585.421 743.523 581.901 744.003C582.221 742.243 582.501 740.483 582.741 738.723C582.981 736.963 583.101 735.203 583.101 733.443C583.101 731.683 582.981 729.923 582.741 728.163C582.501 726.403 582.221 724.643 581.901 722.883C587.341 723.043 592.261 723.203 596.661 723.363C601.061 723.523 605.541 723.643 610.101 723.723C614.661 723.803 619.621 723.883 624.981 723.963C630.341 724.043 636.781 724.083 644.301 724.083C651.821 724.083 658.261 724.043 663.621 723.963C668.981 723.883 673.901 723.803 678.381 723.723C682.861 723.643 687.221 723.523 691.461 723.363C695.701 723.203 700.301 723.043 705.261 722.883C704.941 724.643 704.661 726.403 704.421 728.163C704.181 729.923 704.061 731.683 704.061 733.443C704.061 735.203 704.181 736.963 704.421 738.723C704.661 740.483 704.941 742.243 705.261 744.003C702.061 743.523 698.461 743.083 694.461 742.683C690.461 742.283 686.501 741.963 682.581 741.723C678.661 741.483 674.941 741.283 671.421 741.123C667.901 740.963 664.941 740.883 662.541 740.883C662.381 741.683 662.261 742.803 662.181 744.243C662.101 745.683 662.061 747.363 662.061 749.283L662.061 762.003L662.061 822.003C662.061 835.283 662.221 847.083 662.541 857.403C662.861 867.723 663.341 877.843 663.981 887.763C661.261 887.443 658.301 887.283 655.101 887.283C651.901 887.283 648.301 887.283 644.301 887.283C640.301 887.283 636.701 887.283 633.501 887.283C630.301 887.283 627.341 887.443 624.621 887.763C625.261 877.843 625.741 867.723 626.061 857.403C626.381 847.083 626.541 835.283 626.541 822.003L626.541 762.003Z" fill-rule="evenodd"/>
<path clip-path="url(#TextBounds)" d="M840.141 808.323C834.061 808.163 827.981 807.963 821.901 807.723C815.821 807.483 809.741 807.363 803.661 807.363C797.581 807.363 791.501 807.443 785.421 807.603C779.341 807.763 773.261 808.003 767.181 808.323L767.181 822.003C767.181 835.283 767.341 847.083 767.661 857.403C767.981 867.723 768.461 877.843 769.101 887.763C766.381 887.443 763.421 887.283 760.221 887.283C757.021 887.283 753.421 887.283 749.421 887.283C745.421 887.283 741.821 887.283 738.621 887.283C735.421 887.283 732.461 887.443 729.741 887.763C730.381 877.843 730.861 867.723 731.181 857.403C731.501 847.083 731.661 835.283 731.661 822.003L731.661 789.363C731.661 776.083 731.501 764.283 731.181 753.963C730.861 743.643 730.381 733.283 729.741 722.883C732.461 723.203 735.421 723.483 738.621 723.723C741.821 723.963 745.421 724.083 749.421 724.083C753.421 724.083 757.021 723.963 760.221 723.723C763.421 723.483 766.381 723.203 769.101 722.883C768.301 733.283 767.781 743.563 767.541 753.723C767.301 763.883 767.181 775.603 767.181 788.883C771.341 789.043 776.341 789.163 782.181 789.243C788.021 789.323 795.261 789.363 803.901 789.363C812.541 789.363 819.581 789.323 825.021 789.243C830.461 789.163 835.501 789.043 840.141 788.883C840.141 775.603 839.981 763.883 839.661 753.723C839.341 743.563 838.861 733.283 838.221 722.883C840.941 723.203 843.901 723.483 847.101 723.723C850.301 723.963 853.901 724.083 857.901 724.083C861.901 724.083 865.501 723.963 868.701 723.723C871.901 723.483 874.861 723.203 877.581 722.883C876.941 733.283 876.461 743.643 876.141 753.963C875.821 764.283 875.661 776.083 875.661 789.363L875.661 822.003C875.661 835.283 875.821 847.083 876.141 857.403C876.461 867.723 876.941 877.843 877.581 887.763C874.861 887.443 871.901 887.283 868.701 887.283C865.501 887.283 861.901 887.283 857.901 887.283C853.901 887.283 850.301 887.283 847.101 887.283C843.901 887.283 840.941 887.443 838.221 887.763C838.861 877.843 839.341 867.723 839.661 857.403C839.981 847.083 840.141 835.283 840.141 822.003L840.141 808.323Z" fill-rule="evenodd"/>
<path clip-path="url(#TextBounds)" d="M968.781 768.003C964.621 777.603 960.701 787.083 957.021 796.443C953.341 805.803 949.741 815.363 946.221 825.123L990.141 825.123C986.621 815.363 983.141 805.803 979.701 796.443C976.261 787.083 972.621 777.603 968.781 768.003ZM1053.74 887.763C1049.9 887.443 1046.26 887.283 1042.82 887.283C1039.38 887.283 1035.98 887.283 1032.62 887.283C1029.26 887.283 1025.86 887.283 1022.42 887.283C1018.98 887.283 1015.58 887.443 1012.22 887.763C1009.66 879.923 1007.02 871.923 1004.3 863.763C1001.58 855.603 998.701 847.443 995.661 839.283C990.541 839.123 985.421 839.003 980.301 838.923C975.181 838.843 970.061 838.803 964.941 838.803C960.781 838.803 956.621 838.843 952.461 838.923C948.301 839.003 944.141 839.123 939.981 839.283C936.781 847.443 933.821 855.603 931.101 863.763C928.381 871.923 925.901 879.923 923.661 887.763C921.741 887.443 919.861 887.283 918.021 887.283C916.181 887.283 914.301 887.283 912.381 887.283C910.461 887.283 908.541 887.283 906.621 887.283C904.701 887.283 902.621 887.443 900.381 887.763C902.301 883.603 904.861 877.843 908.061 870.483C911.261 863.123 914.781 854.803 918.621 845.523C922.461 836.243 926.581 826.283 930.981 815.643C935.381 805.003 939.781 794.243 944.181 783.363C948.581 772.483 952.901 761.763 957.141 751.203C961.381 740.643 965.261 730.803 968.781 721.683C970.381 722.003 971.901 722.283 973.341 722.523C974.781 722.763 976.301 722.883 977.901 722.883C979.501 722.883 981.021 722.763 982.461 722.523C983.901 722.283 985.421 722.003 987.021 721.683C992.141 735.283 997.621 749.843 1003.46 765.363C1009.3 780.883 1015.18 796.123 1021.1 811.083C1027.02 826.043 1032.78 840.243 1038.38 853.683C1043.98 867.123 1049.1 878.483 1053.74 887.763Z" fill-rule="evenodd"/>
<path clip-path="url(#TextBounds)" d="M1079.42 789.363C1079.42 776.083 1079.26 764.283 1078.94 753.963C1078.62 743.643 1078.14 733.283 1077.5 722.883C1080.22 723.203 1083.18 723.483 1086.38 723.723C1089.58 723.963 1093.18 724.083 1097.18 724.083C1101.18 724.083 1104.78 723.963 1107.98 723.723C1111.18 723.483 1114.14 723.203 1116.86 722.883C1116.22 733.283 1115.74 743.643 1115.42 753.963C1115.1 764.283 1114.94 776.083 1114.94 789.363L1114.94 822.003C1114.94 835.283 1115.1 847.083 1115.42 857.403C1115.74 867.723 1116.22 877.843 1116.86 887.763C1114.14 887.443 1111.18 887.283 1107.98 887.283C1104.78 887.283 1101.18 887.283 1097.18 887.283C1093.18 887.283 1089.58 887.283 1086.38 887.283C1083.18 887.283 1080.22 887.443 1077.5 887.763C1078.14 877.843 1078.62 867.723 1078.94 857.403C1079.26 847.083 1079.42 835.283 1079.42 822.003L1079.42 789.363Z" fill-rule="evenodd"/>
<path clip-path="url(#TextBounds)" d="M1295.9 755.283C1290.78 741.523 1281.1 734.643 1266.86 734.643C1259.5 734.643 1253.5 736.803 1248.86 741.123C1244.22 745.443 1241.9 750.483 1241.9 756.243C1241.9 762.163 1243.7 767.003 1247.3 770.763C1250.9 774.523 1255.42 777.923 1260.86 780.963C1266.3 784.003 1272.14 786.923 1278.38 789.723C1284.62 792.523 1290.46 795.963 1295.9 800.043C1301.34 804.123 1305.86 809.083 1309.46 814.923C1313.06 820.763 1314.86 828.243 1314.86 837.363C1314.86 845.363 1313.34 852.683 1310.3 859.323C1307.26 865.963 1302.94 871.643 1297.34 876.363C1291.74 881.083 1285.06 884.683 1277.3 887.163C1269.54 889.643 1260.86 890.883 1251.26 890.883C1242.62 890.883 1234.9 889.963 1228.1 888.123C1221.3 886.283 1216.14 884.003 1212.62 881.283C1214.22 875.683 1215.58 870.563 1216.7 865.923C1217.82 861.283 1218.78 856.243 1219.58 850.803L1224.14 850.803C1224.78 854.323 1225.98 857.643 1227.74 860.763C1229.5 863.883 1231.74 866.643 1234.46 869.043C1237.18 871.443 1240.46 873.323 1244.3 874.683C1248.14 876.043 1252.46 876.723 1257.26 876.723C1266.86 876.723 1273.94 874.323 1278.5 869.523C1283.06 864.723 1285.34 858.963 1285.34 852.243C1285.34 846.163 1283.58 841.203 1280.06 837.363C1276.54 833.523 1272.14 830.123 1266.86 827.163C1261.58 824.203 1255.82 821.323 1249.58 818.523C1243.34 815.723 1237.58 812.323 1232.3 808.323C1227.02 804.323 1222.62 799.403 1219.1 793.563C1215.58 787.723 1213.82 780.243 1213.82 771.123C1213.82 762.803 1215.3 755.443 1218.26 749.043C1221.22 742.643 1225.18 737.283 1230.14 732.963C1235.1 728.643 1240.82 725.363 1247.3 723.123C1253.78 720.883 1260.62 719.763 1267.82 719.763C1276.46 719.763 1284.02 720.803 1290.5 722.883C1296.98 724.963 1302.54 727.843 1307.18 731.523C1305.74 735.203 1304.5 738.763 1303.46 742.203C1302.42 745.643 1301.1 750.003 1299.5 755.283L1295.9 755.283Z" fill-rule="evenodd"/>
<path clip-path="url(#TextBounds)" d="M1453.58 808.323C1447.5 808.163 1441.42 807.963 1435.34 807.723C1429.26 807.483 1423.18 807.363 1417.1 807.363C1411.02 807.363 1404.94 807.443 1398.86 807.603C1392.78 807.763 1386.7 808.003 1380.62 808.323L1380.62 822.003C1380.62 835.283 1380.78 847.083 1381.1 857.403C1381.42 867.723 1381.9 877.843 1382.54 887.763C1379.82 887.443 1376.86 887.283 1373.66 887.283C1370.46 887.283 1366.86 887.283 1362.86 887.283C1358.86 887.283 1355.26 887.283 1352.06 887.283C1348.86 887.283 1345.9 887.443 1343.18 887.763C1343.82 877.843 1344.3 867.723 1344.62 857.403C1344.94 847.083 1345.1 835.283 1345.1 822.003L1345.1 789.363C1345.1 776.083 1344.94 764.283 1344.62 753.963C1344.3 743.643 1343.82 733.283 1343.18 722.883C1345.9 723.203 1348.86 723.483 1352.06 723.723C1355.26 723.963 1358.86 724.083 1362.86 724.083C1366.86 724.083 1370.46 723.963 1373.66 723.723C1376.86 723.483 1379.82 723.203 1382.54 722.883C1381.74 733.283 1381.22 743.563 1380.98 753.723C1380.74 763.883 1380.62 775.603 1380.62 788.883C1384.78 789.043 1389.78 789.163 1395.62 789.243C1401.46 789.323 1408.7 789.363 1417.34 789.363C1425.98 789.363 1433.02 789.323 1438.46 789.243C1443.9 789.163 1448.94 789.043 1453.58 788.883C1453.58 775.603 1453.42 763.883 1453.1 753.723C1452.78 743.563 1452.3 733.283 1451.66 722.883C1454.38 723.203 1457.34 723.483 1460.54 723.723C1463.74 723.963 1467.34 724.083 1471.34 724.083C1475.34 724.083 1478.94 723.963 1482.14 723.723C1485.34 723.483 1488.3 723.203 1491.02 722.883C1490.38 733.283 1489.9 743.643 1489.58 753.963C1489.26 764.283 1489.1 776.083 1489.1 789.363L1489.1 822.003C1489.1 835.283 1489.26 847.083 1489.58 857.403C1489.9 867.723 1490.38 877.843 1491.02 887.763C1488.3 887.443 1485.34 887.283 1482.14 887.283C1478.94 887.283 1475.34 887.283 1471.34 887.283C1467.34 887.283 1463.74 887.283 1460.54 887.283C1457.34 887.283 1454.38 887.443 1451.66 887.763C1452.3 877.843 1452.78 867.723 1453.1 857.403C1453.42 847.083 1453.58 835.283 1453.58 822.003L1453.58 808.323Z" fill-rule="evenodd"/>
<path clip-path="url(#TextBounds)" d="M1662.62 800.403C1662.62 790.003 1661.34 780.683 1658.78 772.443C1656.22 764.203 1652.66 757.203 1648.1 751.443C1643.54 745.683 1638.02 741.243 1631.54 738.123C1625.06 735.003 1617.98 733.443 1610.3 733.443C1602.14 733.443 1594.82 735.403 1588.34 739.323C1581.86 743.243 1576.38 748.563 1571.9 755.283C1567.42 762.003 1564.02 769.883 1561.7 778.923C1559.38 787.963 1558.22 797.603 1558.22 807.843C1558.22 820.643 1559.58 831.443 1562.3 840.243C1565.02 849.043 1568.7 856.123 1573.34 861.483C1577.98 866.843 1583.34 870.723 1589.42 873.123C1595.5 875.523 1601.9 876.723 1608.62 876.723C1615.82 876.723 1622.7 875.203 1629.26 872.163C1635.82 869.123 1641.54 864.483 1646.42 858.243C1651.3 852.003 1655.22 844.083 1658.18 834.483C1661.14 824.883 1662.62 813.523 1662.62 800.403ZM1518.86 805.683C1518.86 793.843 1521.06 782.723 1525.46 772.323C1529.86 761.923 1536.06 752.803 1544.06 744.963C1552.06 737.123 1561.74 730.963 1573.1 726.483C1584.46 722.003 1597.1 719.763 1611.02 719.763C1623.82 719.763 1635.74 721.523 1646.78 725.043C1657.82 728.563 1667.42 733.843 1675.58 740.883C1683.74 747.923 1690.18 756.843 1694.9 767.643C1699.62 778.443 1701.98 791.043 1701.98 805.443C1701.98 817.443 1699.7 828.643 1695.14 839.043C1690.58 849.443 1684.26 858.523 1676.18 866.283C1668.1 874.043 1658.46 880.083 1647.26 884.403C1636.06 888.723 1623.74 890.883 1610.3 890.883C1597.66 890.883 1585.78 889.323 1574.66 886.203C1563.54 883.083 1553.86 878.043 1545.62 871.083C1537.38 864.123 1530.86 855.243 1526.06 844.443C1521.26 833.643 1518.86 820.723 1518.86 805.683Z" fill-rule="evenodd"/>
<path clip-path="url(#TextBounds)" d="M1801.1 768.963C1801.1 762.883 1800.42 757.763 1799.06 753.603C1797.7 749.443 1795.86 746.123 1793.54 743.643C1791.22 741.163 1788.5 739.363 1785.38 738.243C1782.26 737.123 1779.02 736.563 1775.66 736.563L1770.14 736.563C1769.34 736.563 1768.54 736.563 1767.74 736.563C1766.94 736.563 1766.22 736.643 1765.58 736.803C1765.42 748.323 1765.3 759.643 1765.22 770.763C1765.14 781.883 1765.1 793.043 1765.1 804.243C1769.1 804.243 1773.22 803.843 1777.46 803.043C1781.7 802.243 1785.58 800.603 1789.1 798.123C1792.62 795.643 1795.5 792.083 1797.74 787.443C1799.98 782.803 1801.1 776.643 1801.1 768.963ZM1729.58 789.363C1729.58 776.083 1729.42 764.283 1729.1 753.963C1728.78 743.643 1728.3 733.283 1727.66 722.883C1730.38 723.203 1733.34 723.483 1736.54 723.723C1739.74 723.963 1743.34 724.083 1747.34 724.083C1752.94 724.083 1758.74 723.883 1764.74 723.483C1770.74 723.083 1776.62 722.883 1782.38 722.883C1793.74 722.883 1802.62 723.723 1809.02 725.403C1815.42 727.083 1820.46 729.523 1824.14 732.723C1829.26 736.883 1833.02 741.523 1835.42 746.643C1837.82 751.763 1839.02 757.923 1839.02 765.123C1839.02 774.243 1837.5 782.083 1834.46 788.643C1831.42 795.203 1827.14 800.523 1821.62 804.603C1816.1 808.683 1809.58 811.683 1802.06 813.603C1794.54 815.523 1786.3 816.483 1777.34 816.483L1765.1 816.483C1765.1 828.483 1765.22 840.443 1765.46 852.363C1765.7 864.283 1766.22 876.083 1767.02 887.763C1764.3 887.443 1761.34 887.283 1758.14 887.283C1754.94 887.283 1751.34 887.283 1747.34 887.283C1743.34 887.283 1739.74 887.283 1736.54 887.283C1733.34 887.283 1730.38 887.443 1727.66 887.763C1728.3 877.843 1728.78 867.723 1729.1 857.403C1729.42 847.083 1729.58 835.283 1729.58 822.003L1729.58 789.363Z" fill-rule="evenodd"/>
</g>
</g>
</svg>